<svg width="1152" height="700" viewBox="0 0 1152 700" fill="none" xmlns="http://www.w3.org/2000/svg">
<g clip-path="url(#clip0)">
<rect width="1152" height="700" fill="white"/>
<path d="M1124.38 365.5H1098C1084.21 365.5 1072.88 354.963 1071.62 341.5H1098C1111.79 341.5 1123.12 352.037 1124.38 365.5Z" stroke="#A9F5C8" stroke-opacity="0.3" stroke-width="5"/>
<circle cx="37.5" cy="476.5" r="21" stroke="#29E776" stroke-opacity="0.3" stroke-width="5"/>
<circle cx="1105.5" cy="528.5" r="44" stroke="#29E776" stroke-opacity="0.3" stroke-width="5"/>
<circle cx="949.5" cy="69.5" r="21" stroke="#29E776" stroke-opacity="0.3" stroke-width="5"/>
<circle cx="-0.5" cy="499.5" r="44" stroke="#29E776" stroke-opacity="0.3" stroke-width="5"/>
<circle cx="911.5" cy="92.5" r="44" stroke="#29E776" stroke-opacity="0.3" stroke-width="5"/>
<path d="M768.384 98.5H742C728.208 98.5 716.876 87.9631 715.616 74.5H742C755.792 74.5 767.124 85.0369 768.384 98.5Z" stroke="#A9F5C8" stroke-opacity="0.3" stroke-width="5"/>
<path d="M712.384 555.5H686C672.208 555.5 660.876 544.963 659.616 531.5H686C699.792 531.5 711.124 542.037 712.384 555.5Z" stroke="#A9F5C8" stroke-opacity="0.3" stroke-width="5"/>
<path d="M527.384 247.5H501C487.208 247.5 475.876 236.963 474.616 223.5H501C514.792 223.5 526.124 234.037 527.384 247.5Z" stroke="#A9F5C8" stroke-opacity="0.3" stroke-width="5"/>
<rect x="102" y="239" width="12" height="11" rx="2" fill="#8568DA" fill-opacity="0.2"/>
<rect x="102" y="258" width="12" height="11" rx="2" fill="#8568DA" fill-opacity="0.2"/>
<rect x="102" y="277" width="12" height="11" rx="2" fill="#8568DA" fill-opacity="0.2"/>
<rect x="102" y="296" width="12" height="11" rx="2" fill="#8568DA" fill-opacity="0.2"/>
<rect x="102" y="315" width="12" height="11" rx="2" fill="#8568DA" fill-opacity="0.2"/>
<rect x="102" y="334" width="12" height="11" rx="2" fill="#8568DA" fill-opacity="0.2"/>
<rect x="102" y="353" width="12" height="11" rx="2" fill="#8568DA" fill-opacity="0.2"/>
<rect x="102" y="372" width="12" height="11" rx="2" fill="#8568DA" fill-opacity="0.2"/>
<rect x="102" y="391" width="12" height="11" rx="2" fill="#8568DA" fill-opacity="0.2"/>
<rect x="102" y="410" width="12" height="11" rx="2" fill="#8568DA" fill-opacity="0.2"/>
<rect x="122" y="239" width="12" height="11" rx="2" fill="#8568DA" fill-opacity="0.2"/>
<rect x="122" y="258" width="12" height="11" rx="2" fill="#8568DA" fill-opacity="0.2"/>
<rect x="122" y="277" width="12" height="11" rx="2" fill="#8568DA" fill-opacity="0.2"/>
<rect x="122" y="296" width="12" height="11" rx="2" fill="#8568DA" fill-opacity="0.2"/>
<rect x="122" y="315" width="12" height="11" rx="2" fill="#8568DA" fill-opacity="0.2"/>
<rect x="122" y="334" width="12" height="11" rx="2" fill="#8568DA" fill-opacity="0.2"/>
<rect x="122" y="353" width="12" height="11" rx="2" fill="#8568DA" fill-opacity="0.2"/>
<rect x="122" y="372" width="12" height="11" rx="2" fill="#8568DA" fill-opacity="0.2"/>
<rect x="122" y="391" width="12" height="11" rx="2" fill="#8568DA" fill-opacity="0.2"/>
<rect x="122" y="410" width="12" height="11" rx="2" fill="#8568DA" fill-opacity="0.2"/>
<rect x="142" y="239" width="12" height="11" rx="2" fill="#8568DA" fill-opacity="0.2"/>
<rect x="142" y="258" width="12" height="11" rx="2" fill="#8568DA" fill-opacity="0.2"/>
<rect x="142" y="277" width="12" height="11" rx="2" fill="#8568DA" fill-opacity="0.2"/>
<rect x="142" y="296" width="12" height="11" rx="2" fill="#8568DA" fill-opacity="0.2"/>
<rect x="142" y="315" width="12" height="11" rx="2" fill="#8568DA" fill-opacity="0.2"/>
<rect x="142" y="334" width="12" height="11" rx="2" fill="#8568DA" fill-opacity="0.2"/>
<rect x="142" y="353" width="12" height="11" rx="2" fill="#8568DA" fill-opacity="0.2"/>
<rect x="142" y="372" width="12" height="11" rx="2" fill="#8568DA" fill-opacity="0.2"/>
<rect x="142" y="391" width="12" height="11" rx="2" fill="#8568DA" fill-opacity="0.2"/>
<rect x="142" y="410" width="12" height="11" rx="2" fill="#8568DA" fill-opacity="0.2"/>
<rect x="162" y="239" width="12" height="11" rx="2" fill="#8568DA" fill-opacity="0.2"/>
<rect x="162" y="258" width="12" height="11" rx="2" fill="#8568DA" fill-opacity="0.2"/>
<rect x="162" y="277" width="12" height="11" rx="2" fill="#8568DA" fill-opacity="0.2"/>
<rect x="162" y="296" width="12" height="11" rx="2" fill="#8568DA" fill-opacity="0.2"/>
<rect x="162" y="315" width="12" height="11" rx="2" fill="#8568DA" fill-opacity="0.2"/>
<rect x="162" y="334" width="12" height="11" rx="2" fill="#8568DA" fill-opacity="0.2"/>
<rect x="162" y="353" width="12" height="11" rx="2" fill="#8568DA" fill-opacity="0.2"/>
<rect x="162" y="372" width="12" height="11" rx="2" fill="#8568DA" fill-opacity="0.2"/>
<rect x="162" y="391" width="12" height="11" rx="2" fill="#8568DA" fill-opacity="0.2"/>
<rect x="162" y="410" width="12" height="11" rx="2" fill="#8568DA" fill-opacity="0.2"/>
<rect x="182" y="239" width="12" height="11" rx="2" fill="#8568DA" fill-opacity="0.2"/>
<rect x="182" y="258" width="12" height="11" rx="2" fill="#8568DA" fill-opacity="0.2"/>
<rect x="182" y="277" width="12" height="11" rx="2" fill="#8568DA" fill-opacity="0.2"/>
<rect x="182" y="296" width="12" height="11" rx="2" fill="#8568DA" fill-opacity="0.2"/>
<rect x="182" y="315" width="12" height="11" rx="2" fill="#8568DA" fill-opacity="0.2"/>
<rect x="182" y="334" width="12" height="11" rx="2" fill="#8568DA" fill-opacity="0.2"/>
<rect x="182" y="353" width="12" height="11" rx="2" fill="#8568DA" fill-opacity="0.2"/>
<rect x="182" y="372" width="12" height="11" rx="2" fill="#8568DA" fill-opacity="0.2"/>
<rect x="182" y="391" width="12" height="11" rx="2" fill="#8568DA" fill-opacity="0.2"/>
<rect x="182" y="410" width="12" height="11" rx="2" fill="#8568DA" fill-opacity="0.2"/>
<rect x="202" y="239" width="12" height="11" rx="2" fill="#8568DA" fill-opacity="0.2"/>
<rect x="202" y="258" width="12" height="11" rx="2" fill="#8568DA" fill-opacity="0.2"/>
<rect x="202" y="277" width="12" height="11" rx="2" fill="#8568DA" fill-opacity="0.2"/>
<rect x="202" y="296" width="12" height="11" rx="2" fill="#8568DA" fill-opacity="0.2"/>
<rect x="202" y="315" width="12" height="11" rx="2" fill="#8568DA" fill-opacity="0.2"/>
<rect x="202" y="334" width="12" height="11" rx="2" fill="#8568DA" fill-opacity="0.2"/>
<rect x="202" y="353" width="12" height="11" rx="2" fill="#8568DA" fill-opacity="0.2"/>
<rect x="202" y="372" width="12" height="11" rx="2" fill="#8568DA" fill-opacity="0.2"/>
<rect x="202" y="391" width="12" height="11" rx="2" fill="#8568DA" fill-opacity="0.2"/>
<rect x="202" y="410" width="12" height="11" rx="2" fill="#8568DA" fill-opacity="0.2"/>
<rect x="222" y="239" width="12" height="11" rx="2" fill="#8568DA" fill-opacity="0.2"/>
<rect x="222" y="258" width="12" height="11" rx="2" fill="#8568DA" fill-opacity="0.2"/>
<rect x="222" y="277" width="12" height="11" rx="2" fill="#8568DA" fill-opacity="0.2"/>
<rect x="222" y="296" width="12" height="11" rx="2" fill="#8568DA" fill-opacity="0.2"/>
<rect x="222" y="315" width="12" height="11" rx="2" fill="#8568DA" fill-opacity="0.2"/>
<rect x="222" y="334" width="12" height="11" rx="2" fill="#8568DA" fill-opacity="0.2"/>
<rect x="222" y="353" width="12" height="11" rx="2" fill="#8568DA" fill-opacity="0.2"/>
<rect x="222" y="372" width="12" height="11" rx="2" fill="#8568DA" fill-opacity="0.2"/>
<rect x="222" y="391" width="12" height="11" rx="2" fill="#8568DA" fill-opacity="0.2"/>
<rect x="222" y="410" width="12" height="11" rx="2" fill="#8568DA" fill-opacity="0.2"/>
</g>
<defs>
<clipPath id="clip0">
<rect width="1152" height="700" fill="white"/>
</clipPath>
</defs>
</svg>
