<svg width="1152" height="518" viewBox="0 0 1152 518" fill="none" xmlns="http://www.w3.org/2000/svg">
<path d="M1149.9 312.803H1124.12C1110.66 312.803 1099.6 302.535 1098.35 289.406H1124.12C1137.58 289.406 1148.64 299.673 1149.9 312.803Z" stroke="#A9F5C8" stroke-opacity="0.3" stroke-width="5"/>
<path d="M1012.14 22.5327C1012.14 33.7378 1003.61 42.5655 993.398 42.5655C983.186 42.5655 974.659 33.7378 974.659 22.5327C974.659 11.3277 983.186 2.5 993.398 2.5C1003.61 2.5 1012.14 11.3277 1012.14 22.5327Z" stroke="#29E776" stroke-opacity="0.3" stroke-width="5"/>
<path d="M52.6725 414.533C52.6725 425.738 44.1455 434.565 33.9333 434.565C23.7211 434.565 15.194 425.738 15.194 414.533C15.194 403.328 23.7211 394.5 33.9333 394.5C44.1455 394.5 52.6725 403.328 52.6725 414.533Z" stroke="#29E776" stroke-opacity="0.3" stroke-width="5"/>
<path d="M1174.5 462.64C1174.5 486.026 1156.67 504.726 1134.99 504.726C1113.31 504.726 1095.49 486.026 1095.49 462.64C1095.49 439.254 1113.31 420.554 1134.99 420.554C1156.67 420.554 1174.5 439.254 1174.5 462.64Z" stroke="#29E776" stroke-opacity="0.3" stroke-width="5"/>
<path d="M38.513 436.586C38.513 459.972 20.6871 478.672 -0.993492 478.672C-22.6741 478.672 -40.5 459.972 -40.5 436.586C-40.5 413.2 -22.6741 394.5 -0.993492 394.5C20.6871 394.5 38.513 413.2 38.513 436.586Z" stroke="#29E776" stroke-opacity="0.3" stroke-width="5"/>
<path d="M998.922 44.5861C998.922 67.945 980.911 86.6721 958.944 86.6721C936.977 86.6721 918.965 67.945 918.965 44.5861C918.965 21.2271 936.977 2.5 958.944 2.5C980.911 2.5 998.922 21.2271 998.922 44.5861Z" stroke="#29E776" stroke-opacity="0.3" stroke-width="5"/>
<path d="M828.886 50.2362H806.452C793.32 50.2362 782.524 40.2326 781.268 27.4298H803.702C816.835 27.4298 827.631 37.4334 828.886 50.2362Z" stroke="#A9F5C8" stroke-opacity="0.3" stroke-width="5"/>
<path d="M609.886 193.103H588.396C575.263 193.103 564.467 183.1 563.212 170.297H584.702C597.834 170.297 608.631 180.301 609.886 193.103Z" stroke="#A9F5C8" stroke-opacity="0.3" stroke-width="5"/>
<g clip-path="url(#clip0)">
<rect x="182.171" y="181.138" width="12" height="11" rx="2" fill="#8568DA" fill-opacity="0.2"/>
<rect x="182.171" y="200.138" width="12" height="11" rx="2" fill="#8568DA" fill-opacity="0.2"/>
<rect x="182.171" y="219.138" width="12" height="11" rx="2" fill="#8568DA" fill-opacity="0.2"/>
<rect x="182.171" y="238.138" width="12" height="11" rx="2" fill="#8568DA" fill-opacity="0.2"/>
<rect x="182.171" y="257.138" width="12" height="11" rx="2" fill="#8568DA" fill-opacity="0.2"/>
<rect x="182.171" y="276.138" width="12" height="11" rx="2" fill="#8568DA" fill-opacity="0.2"/>
<rect x="182.171" y="295.138" width="12" height="11" rx="2" fill="#8568DA" fill-opacity="0.2"/>
<rect x="182.171" y="314.138" width="12" height="11" rx="2" fill="#8568DA" fill-opacity="0.2"/>
<rect x="182.171" y="333.138" width="12" height="11" rx="2" fill="#8568DA" fill-opacity="0.2"/>
<rect x="182.171" y="352.138" width="12" height="11" rx="2" fill="#8568DA" fill-opacity="0.2"/>
<rect x="202.171" y="181.138" width="12" height="11" rx="2" fill="#8568DA" fill-opacity="0.2"/>
<rect x="202.171" y="200.138" width="12" height="11" rx="2" fill="#8568DA" fill-opacity="0.2"/>
<rect x="202.171" y="219.138" width="12" height="11" rx="2" fill="#8568DA" fill-opacity="0.2"/>
<rect x="202.171" y="238.138" width="12" height="11" rx="2" fill="#8568DA" fill-opacity="0.2"/>
<rect x="202.171" y="257.138" width="12" height="11" rx="2" fill="#8568DA" fill-opacity="0.2"/>
<rect x="202.171" y="276.138" width="12" height="11" rx="2" fill="#8568DA" fill-opacity="0.2"/>
<rect x="202.171" y="295.138" width="12" height="11" rx="2" fill="#8568DA" fill-opacity="0.2"/>
<rect x="202.171" y="314.138" width="12" height="11" rx="2" fill="#8568DA" fill-opacity="0.2"/>
<rect x="202.171" y="333.138" width="12" height="11" rx="2" fill="#8568DA" fill-opacity="0.2"/>
<rect x="202.171" y="352.138" width="12" height="11" rx="2" fill="#8568DA" fill-opacity="0.2"/>
<rect x="222.171" y="181.138" width="12" height="11" rx="2" fill="#8568DA" fill-opacity="0.2"/>
<rect x="222.171" y="200.138" width="12" height="11" rx="2" fill="#8568DA" fill-opacity="0.2"/>
<rect x="222.171" y="219.138" width="12" height="11" rx="2" fill="#8568DA" fill-opacity="0.2"/>
<rect x="222.171" y="238.138" width="12" height="11" rx="2" fill="#8568DA" fill-opacity="0.2"/>
<rect x="222.171" y="257.138" width="12" height="11" rx="2" fill="#8568DA" fill-opacity="0.2"/>
<rect x="222.171" y="276.138" width="12" height="11" rx="2" fill="#8568DA" fill-opacity="0.2"/>
<rect x="222.171" y="295.138" width="12" height="11" rx="2" fill="#8568DA" fill-opacity="0.2"/>
<rect x="222.171" y="314.138" width="12" height="11" rx="2" fill="#8568DA" fill-opacity="0.2"/>
<rect x="222.171" y="333.138" width="12" height="11" rx="2" fill="#8568DA" fill-opacity="0.2"/>
<rect x="222.171" y="352.138" width="12" height="11" rx="2" fill="#8568DA" fill-opacity="0.2"/>
<rect x="242.171" y="181.138" width="12" height="11" rx="2" fill="#8568DA" fill-opacity="0.2"/>
<rect x="242.171" y="200.138" width="12" height="11" rx="2" fill="#8568DA" fill-opacity="0.2"/>
<rect x="242.171" y="219.138" width="12" height="11" rx="2" fill="#8568DA" fill-opacity="0.2"/>
<rect x="242.171" y="238.138" width="12" height="11" rx="2" fill="#8568DA" fill-opacity="0.2"/>
<rect x="242.171" y="257.138" width="12" height="11" rx="2" fill="#8568DA" fill-opacity="0.2"/>
<rect x="242.171" y="276.138" width="12" height="11" rx="2" fill="#8568DA" fill-opacity="0.2"/>
<rect x="242.171" y="295.138" width="12" height="11" rx="2" fill="#8568DA" fill-opacity="0.2"/>
<rect x="242.171" y="314.138" width="12" height="11" rx="2" fill="#8568DA" fill-opacity="0.2"/>
<rect x="242.171" y="333.138" width="12" height="11" rx="2" fill="#8568DA" fill-opacity="0.2"/>
<rect x="242.171" y="352.138" width="12" height="11" rx="2" fill="#8568DA" fill-opacity="0.2"/>
<rect x="262.171" y="181.138" width="12" height="11" rx="2" fill="#8568DA" fill-opacity="0.2"/>
<rect x="262.171" y="200.138" width="12" height="11" rx="2" fill="#8568DA" fill-opacity="0.2"/>
<rect x="262.171" y="219.138" width="12" height="11" rx="2" fill="#8568DA" fill-opacity="0.2"/>
<rect x="262.171" y="238.138" width="12" height="11" rx="2" fill="#8568DA" fill-opacity="0.2"/>
<rect x="262.171" y="257.138" width="12" height="11" rx="2" fill="#8568DA" fill-opacity="0.2"/>
<rect x="262.171" y="276.138" width="12" height="11" rx="2" fill="#8568DA" fill-opacity="0.2"/>
<rect x="262.171" y="295.138" width="12" height="11" rx="2" fill="#8568DA" fill-opacity="0.2"/>
<rect x="262.171" y="314.138" width="12" height="11" rx="2" fill="#8568DA" fill-opacity="0.2"/>
<rect x="262.171" y="333.138" width="12" height="11" rx="2" fill="#8568DA" fill-opacity="0.2"/>
<rect x="262.171" y="352.138" width="12" height="11" rx="2" fill="#8568DA" fill-opacity="0.2"/>
<rect x="282.171" y="181.138" width="12" height="11" rx="2" fill="#8568DA" fill-opacity="0.2"/>
<rect x="282.171" y="200.138" width="12" height="11" rx="2" fill="#8568DA" fill-opacity="0.2"/>
<rect x="282.171" y="219.138" width="12" height="11" rx="2" fill="#8568DA" fill-opacity="0.2"/>
<rect x="282.171" y="238.138" width="12" height="11" rx="2" fill="#8568DA" fill-opacity="0.2"/>
<rect x="282.171" y="257.138" width="12" height="11" rx="2" fill="#8568DA" fill-opacity="0.2"/>
<rect x="282.171" y="276.138" width="12" height="11" rx="2" fill="#8568DA" fill-opacity="0.2"/>
<rect x="282.171" y="295.138" width="12" height="11" rx="2" fill="#8568DA" fill-opacity="0.2"/>
<rect x="282.171" y="314.138" width="12" height="11" rx="2" fill="#8568DA" fill-opacity="0.2"/>
<rect x="282.171" y="333.138" width="12" height="11" rx="2" fill="#8568DA" fill-opacity="0.2"/>
<rect x="282.171" y="352.138" width="12" height="11" rx="2" fill="#8568DA" fill-opacity="0.2"/>
<rect x="302.171" y="181.138" width="12" height="11" rx="2" fill="#8568DA" fill-opacity="0.2"/>
<rect x="302.171" y="200.138" width="12" height="11" rx="2" fill="#8568DA" fill-opacity="0.2"/>
<rect x="302.171" y="219.138" width="12" height="11" rx="2" fill="#8568DA" fill-opacity="0.2"/>
<rect x="302.171" y="238.138" width="12" height="11" rx="2" fill="#8568DA" fill-opacity="0.2"/>
<rect x="302.171" y="257.138" width="12" height="11" rx="2" fill="#8568DA" fill-opacity="0.2"/>
<rect x="302.171" y="276.138" width="12" height="11" rx="2" fill="#8568DA" fill-opacity="0.2"/>
<rect x="302.171" y="295.138" width="12" height="11" rx="2" fill="#8568DA" fill-opacity="0.2"/>
<rect x="302.171" y="314.138" width="12" height="11" rx="2" fill="#8568DA" fill-opacity="0.2"/>
<rect x="302.171" y="333.138" width="12" height="11" rx="2" fill="#8568DA" fill-opacity="0.2"/>
<rect x="302.171" y="352.138" width="12" height="11" rx="2" fill="#8568DA" fill-opacity="0.2"/>
</g>
<defs>
<clipPath id="clip0">
<rect width="132.155" height="180.262" fill="white" transform="translate(180.171 183.138)"/>
</clipPath>
</defs>
</svg>
